<svg width="125" height="112" fill="none" xmlns="http://www.w3.org/2000/svg"><path fill-rule="evenodd" clip-rule="evenodd" d="m62.693 66.735-.885-.905-1.937-1.98-.871-.89.398-1.192 7.02-21.04.597-1.787 1.785.486c1.032.282 2.81.56 4.621.432 1.844-.13 3.4-.653 4.366-1.64l1.398-1.43 1.399 1.43 6.294 6.435 1.399 1.43-1.398 1.43c-1.104 1.128-1.648 2.748-1.802 4.517-.153 1.764.104 3.445.368 4.389l.51 1.822-1.747.637-20.336 7.426-1.179.43Zm7.43-12.813-5.961 6.093 5.44-16.302a18.82 18.82 0 0 0 4.09.18c1.704-.12 3.64-.528 5.32-1.563l3.825 3.911c-1.082 1.731-1.547 3.685-1.7 5.431a17.675 17.675 0 0 0 .12 3.99l-15.62 5.704 5.825-5.954a3.033 3.033 0 0 0 3.66-.537 3.201 3.201 0 0 0 0-4.456 3.035 3.035 0 0 0-4.36 0 3.204 3.204 0 0 0-.64 3.503Zm2.038-2.074a1.09 1.09 0 0 1 1.562 0 1.147 1.147 0 0 1 0 1.597 1.087 1.087 0 0 1-1.562 0 1.147 1.147 0 0 1 0-1.597Z" fill="#fff"/><path d="m90.574 44.64-10.29-10.29 24.298-24.3a7 7 0 0 1 9.899 0l.392.392a7.001 7.001 0 0 1 0 9.9L90.574 44.64Z" stroke="#fff" stroke-width="6"/><path fill-rule="evenodd" clip-rule="evenodd" d="M4 29a8 8 0 0 1 8-8h70.798v-4H12C5.373 17 0 22.373 0 29v53.546c0 6.628 5.373 12 12 12h37v13.067H29a2 2 0 0 0 0 4h45a2 2 0 1 0 0-4H53V94.546h36.937c6.627 0 12-5.372 12-12V47.193h-4v35.353a8 8 0 0 1-8 8H12a8 8 0 0 1-8-8V29Z" fill="#fff"/></svg>