<svg width="80" height="115" fill="none" xmlns="http://www.w3.org/2000/svg"><path d="M17.037 102.055h44.817M24.333 113h31.268" stroke="#fff" stroke-width="4" stroke-linecap="round"/><path d="M17.677 91.634a2 2 0 1 0 4 0h-4ZM9.217 62.45l-1.766.94 1.765-.94Zm61.01 0-1.702-1.052 1.701 1.052ZM57.281 91.634a2 2 0 0 0 4 0h-4Zm-35.605 0c0-3.96-1.59-9.397-3.635-14.737-2.074-5.417-4.726-11.008-7.061-15.387l-3.53 1.882c2.273 4.262 4.851 9.7 6.856 14.935 2.033 5.31 3.37 10.145 3.37 13.307h4ZM10.98 61.51c-10.096-18.934-7.176-33.18.3-42.707C18.904 9.09 31.475 4 41.043 4V0C30.328 0 16.565 5.593 8.135 16.334-.441 27.26-3.294 43.24 7.45 63.392l3.53-1.882ZM41.043 4c9.357 0 21.145 6.466 28.139 17.019 6.885 10.39 9.056 24.66-.657 40.38l3.403 2.103c10.573-17.111 8.294-33.066.588-44.693C64.917 7.343 51.97 0 41.043 0v4Zm27.482 57.4c-5.732 9.275-11.243 16.643-11.243 30.234h4c0-12.257 4.785-18.647 10.646-28.132l-3.403-2.103Z" fill="#fff"/><path d="M39.967 91.111V66.097l-7.296-6.253 7.296-8.86m-7.296-4.688L39.967 39" stroke="#fff" stroke-width="4" stroke-linecap="round"/></svg>