<svg width="122" height="128" fill="none" xmlns="http://www.w3.org/2000/svg"><path d="M94.845 35.207c0 18.34-14.87 33.208-33.216 33.208-18.346 0-33.217-14.868-33.217-33.208C28.412 16.867 43.283 2 61.63 2c18.345 0 33.216 14.868 33.216 33.207Zm20.663 70.165a59.2 59.2 0 0 1 4.458 20.625H2.034a59.217 59.217 0 0 1 4.458-20.625 59.125 59.125 0 0 1 12.79-19.18 58.991 58.991 0 0 1 19.141-12.816c1.156-.48 2.43-.369 4.047.368 1.661.758 3.423 2.06 5.39 3.615.315.249.636.505.961.765 1.628 1.298 3.373 2.69 5.125 3.797 2.101 1.328 4.489 2.432 7.054 2.432 2.566 0 4.953-1.104 7.055-2.432 1.75-1.107 3.496-2.499 5.124-3.797.325-.26.646-.516.962-.765 1.966-1.555 3.728-2.857 5.39-3.615 1.616-.737 2.89-.847 4.046-.368a58.993 58.993 0 0 1 19.141 12.815 59.117 59.117 0 0 1 12.79 19.181Z" stroke="#fff" stroke-width="4"/><path d="M46.954 97.92h3.124v6.249h6.54V97.92h3.145V113h-3.145v-6.248h-6.54V113h-3.124V97.92Zm15.35 0h5.916c1.131 0 2.1.202 2.905.605.812.402 1.43.975 1.854 1.718.423.736.635 1.6.635 2.593 0 1.027-.229 1.909-.687 2.645-.458.736-1.118 1.288-1.979 1.656L74.156 113h-3.458l-2.884-5.353h-2.385V113h-3.125V97.92Zm5.332 7.186c1.833 0 2.75-.757 2.75-2.27 0-.771-.23-1.354-.688-1.75-.458-.402-1.145-.604-2.062-.604H65.43v4.624h2.207Z" fill="#fff"/></svg>