<svg width="126" height="111" fill="none" xmlns="http://www.w3.org/2000/svg"><path fill-rule="evenodd" clip-rule="evenodd" d="M85.73 40.992h28.586l-4.941-4.931-1.994 1.99a1.5 1.5 0 1 1-2.119-2.123l1.99-1.986-4.011-4.003-1.996 1.99a1.5 1.5 0 1 1-2.119-2.123l1.991-1.987-4.014-4.006-1.996 1.992a1.5 1.5 0 1 1-2.119-2.124l1.992-1.987-3.757-3.75-2.251 2.248a1.5 1.5 0 1 1-2.12-2.124l2.247-2.242-3.37-3.364v28.53Zm-6-34.517v9.91H12c-6.627 0-12 5.372-12 12V81.93c0 6.627 5.373 12 12 12h37v13.067H29a2 2 0 1 0 0 4h45a2 2 0 0 0 0-4H53V93.931h36.937c6.627 0 12-5.373 12-12V46.99h22.05c1.782 0 2.674-2.155 1.412-3.415l-1.412-1.41-1.046-1.043-.131-.131L85.73 3.986l-.13-.13-1.04-1.037-1.418-1.415c-1.26-1.258-3.412-.365-3.412 1.415v3.656ZM12 20.385h67.73v24.607a2 2 0 0 0 2 2h16.207V81.93a8 8 0 0 1-8 8H12a8 8 0 0 1-8-8V28.385a8 8 0 0 1 8-8Z" fill="#fff"/></svg>