<svg width="122" height="128" fill="none" xmlns="http://www.w3.org/2000/svg"><path d="M94.845 35.207c0 18.34-14.87 33.208-33.216 33.208-18.346 0-33.217-14.868-33.217-33.208C28.412 16.867 43.283 2 61.63 2c18.345 0 33.216 14.868 33.216 33.207Zm20.663 70.165a59.2 59.2 0 0 1 4.458 20.625H2.034a59.217 59.217 0 0 1 4.458-20.625 59.125 59.125 0 0 1 12.79-19.18 58.991 58.991 0 0 1 19.141-12.816c1.156-.48 2.43-.369 4.047.368 1.661.758 3.423 2.06 5.39 3.615.315.249.636.505.961.765 1.628 1.298 3.373 2.69 5.125 3.797 2.101 1.328 4.489 2.432 7.054 2.432 2.566 0 4.953-1.104 7.055-2.432 1.75-1.107 3.496-2.499 5.124-3.797.325-.26.646-.516.962-.765 1.966-1.555 3.728-2.857 5.39-3.615 1.616-.737 2.89-.847 4.046-.368a58.993 58.993 0 0 1 19.141 12.815 59.117 59.117 0 0 1 12.79 19.181Z" stroke="#fff" stroke-width="4"/><path fill-rule="evenodd" clip-rule="evenodd" d="M59.504 90a2 2 0 0 0-2 2v3.868a10.38 10.38 0 0 0-1.771.99l-3.374-1.925a2.024 2.024 0 0 0-2.745.736l-2.328 3.985a1.977 1.977 0 0 0 .728 2.719l3.374 1.925a10.225 10.225 0 0 0 .03 2.102l-3.403 1.943a1.975 1.975 0 0 0-.729 2.718l2.328 3.985a2.024 2.024 0 0 0 2.746.736l3.425-1.954c.063-.037.124-.076.182-.118a10.32 10.32 0 0 0 1.568.845c-.02.116-.031.234-.031.355v3.875a2 2 0 0 0 2 2h4.69a2 2 0 0 0 2-2v-3.875c0-.174-.022-.343-.064-.504a10.26 10.26 0 0 0 1.45-.839 2 2 0 0 0 .352.255l3.425 1.954c.96.548 2.189.218 2.746-.735l2.328-3.986a1.975 1.975 0 0 0-.729-2.718l-3.424-1.955a2.003 2.003 0 0 0-.341-.154 10.245 10.245 0 0 0 .024-1.764 1.98 1.98 0 0 0 .315-.145l3.425-1.955a1.975 1.975 0 0 0 .728-2.718l-2.328-3.985a2.024 2.024 0 0 0-2.745-.736l-3.425 1.954a2.007 2.007 0 0 0-.158.1 10.342 10.342 0 0 0-1.585-.947 2.06 2.06 0 0 0 .006-.157V92a2 2 0 0 0-2-2h-4.69Zm2.354 20.762a5.373 5.373 0 0 0 5.375-5.37 5.372 5.372 0 0 0-5.375-5.369 5.372 5.372 0 0 0-5.376 5.369 5.373 5.373 0 0 0 5.376 5.37Z" fill="#fff"/></svg>