<svg width="128" height="111" fill="none" xmlns="http://www.w3.org/2000/svg"><path fill-rule="evenodd" clip-rule="evenodd" d="M4 28a8 8 0 0 1 8-8h70.798v-4H12C5.373 16 0 21.373 0 28v53.546c0 6.628 5.373 12 12 12h37v13.067H29a2 2 0 0 0 0 4h45a2 2 0 1 0 0-4H53V93.546h36.937c6.627 0 12-5.372 12-12V46.193h-4v35.353a8 8 0 0 1-8 8H12a8 8 0 0 1-8-8V28Z" fill="#fff"/><path fill-rule="evenodd" clip-rule="evenodd" d="m124.857 7.391 2.509.592c.454 1.433.667 2.93.63 4.433a12.503 12.503 0 0 1-3.573 8.783 12.015 12.015 0 0 1-8.61 3.645 11.822 11.822 0 0 1-4.644-.943c-5.419 5.643-14.957 15.272-19.936 19.959a4.231 4.231 0 0 1-2.746 1.084 4.877 4.877 0 0 1-1.73-.408 4.762 4.762 0 0 1-1.406-1.056 4.515 4.515 0 0 1-1.492-3.11 4.541 4.541 0 0 1 .913-3.099 1078.479 1078.479 0 0 1 19.853-20.055 12.674 12.674 0 0 1 0-9.542 12.01 12.01 0 0 1 2.814-4.07 12.302 12.302 0 0 1 3.814-2.702 11.706 11.706 0 0 1 4.686-.9 14.21 14.21 0 0 1 4.332.733l.579 2.548-6.612 6.94 3.84 3.911 6.779-6.743Zm-2.489 11.614a9.386 9.386 0 0 0 2.676-6.589v-.83l-5.941 5.842h-2.122l-6.095-6.067V9.12l5.844-6.025h-.817a8.87 8.87 0 0 0-3.447.689 8.84 8.84 0 0 0-5.027 5.128 9.622 9.622 0 0 0 2.042 10.092 9.2 9.2 0 0 0 12.887 0Zm-27.17-.718h-4.923L88.91 17.6 83 8.21l.212-1.927 2.673-2.731 1.9-.212 9.198 6.054.708 1.406-.183 5.305v.138l2.138 2.182-2.18 2.168-2.267-2.307Zm-.52-6.781-7.442-4.903-.943.917 4.799 7.598h3.46l.125-3.612Zm17.575 15.323-2.167 2.165 10.063 10.262c.14.14.25.308.321.492.072.19.11.39.113.593a1.69 1.69 0 0 1-.116.591 1.397 1.397 0 0 1-.322.493 1.29 1.29 0 0 1-.492.337c-.37.15-.784.15-1.154 0a1.289 1.289 0 0 1-.492-.337l-10.073-10.276-2.184 2.181 10.105 10.305a4.21 4.21 0 0 0 1.406 1.013 4.514 4.514 0 0 0 4.981-1.013 4.756 4.756 0 0 0 0-6.56l-9.989-10.246Z" fill="#fff"/></svg>