<svg width="126" height="111" fill="none" xmlns="http://www.w3.org/2000/svg"><path fill-rule="evenodd" clip-rule="evenodd" d="M92.249 4a4 4 0 0 1 4-4h7.356a3.99 3.99 0 0 1 2.794 1.137A3.975 3.975 0 0 1 107.605 4v5.797c0 .203-.015.398-.043.59l-.026.16a18.13 18.13 0 0 1 2.914 1.726 3.81 3.81 0 0 1 .641-.449l5.228-2.96a4.087 4.087 0 0 1 5.511 1.476l3.618 6.144a3.913 3.913 0 0 1-1.45 5.414l-5.228 2.961a4.097 4.097 0 0 1-.978.395 17.201 17.201 0 0 1 .055 1.394 18.181 18.181 0 0 1-.1 1.883c.268.067.531.16.787.285l.237.122 5.228 2.96a3.914 3.914 0 0 1 1.451 5.415l-3.618 6.144a4.088 4.088 0 0 1-5.512 1.477l-5.228-2.961a3.967 3.967 0 0 1-.942-.738 18.181 18.181 0 0 1-2.766 1.585c.143.414.221.856.221 1.317v5.797a4 4 0 0 1-4 4h-1.668v28c0 6.625-5.373 12-12 12H53V107h21a2 2 0 1 1 0 4H29a2 2 0 1 1 0-4h20V93.934H12c-6.627 0-12-5.375-12-12V28.387c0-6.63 5.373-12 12-12h62.509l3.553-6.035a4.087 4.087 0 0 1 5.511-1.477l5.229 2.96c.076.044.15.087.222.138l.088.058a18.158 18.158 0 0 1 3.165-1.754 4.081 4.081 0 0 1-.028-.48V4ZM74.382 20.387H12a8 8 0 0 0-8 8v53.547a8 8 0 0 0 8 8h77.936a8 8 0 0 0 8-8v-28H96.25a4 4 0 0 1-4-4v-5.797c0-.371.05-.73.145-1.07a18.116 18.116 0 0 1-2.925-1.563c-.201.18-.424.336-.667.473l-5.229 2.96a4.087 4.087 0 0 1-5.51-1.476l-3.619-6.145a3.914 3.914 0 0 1 1.45-5.414l5.229-2.96.217-.11.158-.078a17.666 17.666 0 0 1-.052-3.719l-.323-.164-5.228-2.96a3.924 3.924 0 0 1-1.513-1.524Zm35.063 6.582c0 5.195-4.253 9.41-9.499 9.41-5.245 0-9.498-4.215-9.498-9.41 0-5.196 4.253-9.407 9.498-9.407 5.246 0 9.499 4.211 9.499 9.407Z" fill="#fff"/></svg>