<svg width="656" height="831" viewBox="0 0 656 831" fill="none" xmlns="http://www.w3.org/2000/svg">
<path d="M655.998 150.27L460.998 209.26V625.771L655.998 669.27V150.27Z" fill="white" fill-opacity="0.6"/>
<path d="M3.99756 681.059L459.03 627.27L655.998 671.667L306.498 773.27L3.99756 681.059Z" fill="url(#paint0_linear_3159_10979)"/>
<path d="M456.998 624.674V209.187L0.997559 85.2695V675.27L456.998 624.674Z" fill="url(#paint1_linear_3159_10979)"/>
<path d="M655.998 662.267V158.232L198.925 13.2695L113.998 814.27L655.998 662.267Z" fill="url(#paint2_linear_3159_10979)"/>
<path d="M456.998 616.56V216.566L-0.00244141 97.2695V665.27L456.998 616.56Z" fill="url(#paint3_linear_3159_10979)"/>
<path d="M655.998 253.846L460.998 210.27V625.27L655.998 603.739V253.846Z" fill="url(#paint4_linear_3159_10979)" fill-opacity="0.8"/>
<path d="M655.998 671.869V150.48L199.902 0.269531L114.998 830.27L655.998 671.869Z" fill="url(#paint5_linear_3159_10979)"/>
<defs>
<linearGradient id="paint0_linear_3159_10979" x1="602.163" y1="602.082" x2="559.078" y2="770.299" gradientUnits="userSpaceOnUse">
<stop stop-color="white"/>
<stop offset="1" stop-color="#D9D9D9" stop-opacity="0"/>
</linearGradient>
<linearGradient id="paint1_linear_3159_10979" x1="995.752" y1="533.344" x2="166.473" y2="482.418" gradientUnits="userSpaceOnUse">
<stop stop-color="white"/>
<stop offset="1" stop-color="#D9D9D9" stop-opacity="0"/>
</linearGradient>
<linearGradient id="paint2_linear_3159_10979" x1="1194.16" y1="528.875" x2="364.745" y2="475.818" gradientUnits="userSpaceOnUse">
<stop stop-color="#D9D9D9"/>
<stop offset="0.87931" stop-color="#D9D9D9" stop-opacity="0"/>
</linearGradient>
<linearGradient id="paint3_linear_3159_10979" x1="996.933" y1="528.636" x2="351.944" y2="525.634" gradientUnits="userSpaceOnUse">
<stop stop-color="#D9D9D9"/>
<stop offset="1" stop-color="#D9D9D9" stop-opacity="0"/>
</linearGradient>
<linearGradient id="paint4_linear_3159_10979" x1="580.307" y1="437.409" x2="445.176" y2="430.985" gradientUnits="userSpaceOnUse">
<stop stop-color="white"/>
<stop offset="1" stop-color="white" stop-opacity="0"/>
</linearGradient>
<linearGradient id="paint5_linear_3159_10979" x1="1194.86" y1="534.542" x2="291.633" y2="518.332" gradientUnits="userSpaceOnUse">
<stop stop-color="white"/>
<stop offset="1" stop-color="#D9D9D9" stop-opacity="0"/>
</linearGradient>
</defs>
</svg>
