<svg width="40" height="40" viewBox="0 0 148 148" fill="none" xmlns="http://www.w3.org/2000/svg">
<path fill-rule="evenodd" clip-rule="evenodd" d="M136.651 32.2364L129.436 30.5344L109.937 49.9224L98.8921 38.6744L117.91 18.7222L116.245 11.3962C112.226 10.0517 108.023 9.3402 103.785 9.28718C99.1628 9.2161 94.5751 10.0977 90.3081 11.8772C86.1882 13.7421 82.4641 16.3797 79.3376 19.6472C75.8573 22.944 73.101 26.9289 71.2439 31.3484C67.6683 40.1441 67.6683 49.9883 71.2439 58.7839C51.9598 77.7556 32.9248 96.9788 14.1436 116.448C12.2011 118.992 11.2761 122.165 11.5166 125.356C11.7062 128.789 13.2498 132.005 15.8086 134.301C16.9556 135.55 18.3246 136.586 19.8509 137.335C21.4234 138.029 23.1161 138.426 24.8274 138.51C27.7504 138.454 30.5531 137.344 32.7269 135.392C47.0459 121.915 74.4814 94.2299 90.0676 78.0054C94.2949 79.7999 98.8366 80.7249 103.425 80.7157C108.043 80.712 112.614 79.7827 116.867 77.9827C121.12 76.1826 124.969 73.5483 128.187 70.2354C134.796 63.4946 138.488 54.4235 138.464 44.9829C138.571 40.6629 137.958 36.3553 136.651 32.2364ZM27.1306 128.834C26.7746 129.15 26.3454 129.373 25.8819 129.482C25.4258 129.561 24.9597 129.561 24.5036 129.482C24.0255 129.409 23.5701 129.229 23.1716 128.954C22.7441 128.704 22.3825 128.355 22.1171 127.937C20.8221 126.614 19.6104 124.098 20.8221 122.683C33.4946 109.206 59.5889 82.8617 75.9059 66.7574C76.8309 67.9784 77.8484 69.1439 78.9399 70.2354C80.0314 71.3732 81.2061 72.4277 82.4549 73.3897C66.6744 89.5772 40.9316 115.607 27.1306 128.834ZM129.972 44.9829C129.991 52.0592 127.234 58.8579 122.276 63.9269C117.329 68.7803 110.674 71.4992 103.744 71.4992C96.8131 71.4992 90.159 68.7803 85.2114 63.9269C81.5852 60.1427 79.1082 55.4067 78.0683 50.2697C77.0285 45.1328 77.4687 39.8062 79.3376 34.9097C80.5817 31.5772 82.5113 28.543 85.0018 26.0031C87.4922 23.4633 90.488 21.4744 93.7954 20.1652C96.9357 18.8508 100.307 18.1778 103.711 18.1857H106.061L89.2536 35.5109V41.9489L106.782 59.3944H112.887L129.972 42.5964V44.9829ZM29.9704 61.8642H44.1321L50.6534 68.4964L56.9249 62.2619L50.7736 55.9904V55.5927L51.3009 40.3394L49.2659 36.2972L22.8109 18.8887L17.3441 19.4992L9.65738 27.3524L9.04688 32.8932L26.0484 59.8847L29.9704 61.8642ZM21.2291 28.2682L42.6336 42.3652L42.2729 52.7529H32.3199L18.5189 30.9044L21.2291 28.2682ZM86.9504 92.6482L93.1849 86.4229L121.915 115.884C124.335 118.428 125.685 121.804 125.685 125.315C125.685 128.825 124.335 132.202 121.915 134.745C120.096 136.613 117.756 137.89 115.2 138.41C112.645 138.929 109.992 138.668 107.587 137.659C106.052 136.978 104.676 135.986 103.545 134.745L74.4814 105.117L80.7621 98.8457L109.733 128.39C110.123 128.82 110.607 129.152 111.148 129.361C112.213 129.794 113.404 129.794 114.469 129.361C115.01 129.152 115.495 128.82 115.884 128.39C116.289 127.989 116.605 127.507 116.809 126.975C117.022 126.432 117.134 125.856 117.142 125.273C117.133 124.691 117.024 124.115 116.819 123.571C116.614 123.039 116.298 122.557 115.894 122.156L86.9504 92.6482Z" fill="black"/>
</svg>
