<svg width="135" height="135" viewBox="0 0 135 135" fill="none" xmlns="http://www.w3.org/2000/svg">
<g filter="url(#filter0_d_3238_5487)">
<g clip-path="url(#clip0_3238_5487)">
<path d="M67.5002 7.9375C57.2083 7.9375 47.338 12.0259 40.0605 19.3034C32.7831 26.5808 28.6946 36.4512 28.6946 46.7431C28.6331 52.383 29.8387 57.9648 32.2224 63.0767C33.4034 65.2524 34.7232 67.3499 36.1735 69.3561C38.9995 73.1443 41.3678 77.2533 43.2291 81.5975C44.5098 86.1957 45.209 90.9364 45.3105 95.7086H52.366C52.2577 90.1077 51.4156 84.5453 49.8613 79.1633C47.8251 74.2513 45.195 69.607 42.0296 65.3344C40.7493 63.5935 39.5714 61.7795 38.5018 59.9017C36.6064 55.7533 35.6661 51.2325 35.7502 46.6725C35.7502 38.2191 39.1083 30.112 45.0857 24.1346C51.0631 18.1571 59.1703 14.799 67.6237 14.799C76.077 14.799 84.1842 18.1571 90.1616 24.1346C96.139 30.112 99.4971 38.2191 99.4971 46.6725C99.5036 51.278 98.4663 55.8251 96.4632 59.9722C95.3937 61.85 94.2158 63.664 92.9355 65.405C89.7874 69.6574 87.1693 74.2775 85.1391 79.1633C83.5787 84.568 82.7365 90.1546 82.6343 95.7792H89.6899C89.7913 91.007 90.4906 86.2663 91.7713 81.668C93.6326 77.3238 96.0009 73.2149 98.8268 69.4267C100.283 67.3752 101.603 65.2304 102.778 63.0061C105.162 57.8943 106.367 52.3125 106.306 46.6725C106.287 36.3929 102.19 26.5406 94.9149 19.2784C87.6395 12.0162 77.7798 7.93748 67.5002 7.9375Z" fill="white"/>
<path d="M69.7221 54.7148C69.193 54.187 68.4762 53.8906 67.7289 53.8906C66.9816 53.8906 66.2647 54.187 65.7357 54.7148L55.1523 65.2982L65.2418 76.3401V95.884H71.0273V74.0823L63.1251 65.4393L69.7926 58.7718C70.0601 58.5039 70.2711 58.1849 70.4128 57.8339C70.5545 57.4828 70.6241 57.1069 70.6176 56.7283C70.611 56.3498 70.5283 55.9765 70.3745 55.6306C70.2206 55.2846 69.9987 54.9732 69.7221 54.7148Z" fill="white"/>
<path d="M88.173 102.836H46.7216C45.9731 102.836 45.2553 103.133 44.726 103.663C44.1968 104.192 43.8994 104.91 43.8994 105.658C43.8994 106.407 44.1968 107.125 44.726 107.654C45.2553 108.183 45.9731 108.48 46.7216 108.48H88.173C88.9215 108.48 89.6394 108.183 90.1686 107.654C90.6979 107.125 90.9952 106.407 90.9952 105.658C90.9952 104.91 90.6979 104.192 90.1686 103.663C89.6394 103.133 88.9215 102.836 88.173 102.836Z" fill="white"/>
<path d="M81.6109 113.418H53.3886C52.6401 113.418 51.9223 113.715 51.393 114.245C50.8637 114.774 50.5664 115.492 50.5664 116.24C50.5664 116.989 50.8637 117.707 51.393 118.236C51.9223 118.765 52.6401 119.062 53.3886 119.062H81.6109C82.3594 119.062 83.0772 118.765 83.6065 118.236C84.1357 117.707 84.4331 116.989 84.4331 116.24C84.4331 115.492 84.1357 114.774 83.6065 114.245C83.0772 113.715 82.3594 113.418 81.6109 113.418Z" fill="white"/>
<path d="M65.1009 38.4158L55.4701 48.0466C54.9836 48.5835 54.7223 49.2868 54.7401 50.011C54.7579 50.7353 55.0536 51.4249 55.5659 51.9372C56.0781 52.4495 56.7678 52.7451 57.492 52.7629C58.2163 52.7808 58.9196 52.5194 59.4565 52.033L69.0873 42.3316C69.3706 42.0749 69.5988 41.7633 69.7581 41.4157C69.9173 41.0682 70.0043 40.6919 70.0137 40.3097C70.0231 39.9275 69.9548 39.5473 69.8128 39.1923C69.6709 38.8374 69.4583 38.5149 69.1879 38.2446C68.9176 37.9742 68.5951 37.7616 68.2402 37.6197C67.8852 37.4778 67.505 37.4094 67.1229 37.4188C66.7407 37.4282 66.3643 37.5152 66.0168 37.6744C65.6692 37.8337 65.3576 38.0619 65.1009 38.3452V38.4158Z" fill="white"/>
</g>
</g>
<defs>
<filter id="filter0_d_3238_5487" x="0" y="0" width="135" height="135" filterUnits="userSpaceOnUse" color-interpolation-filters="sRGB">
<feFlood flood-opacity="0" result="BackgroundImageFix"/>
<feColorMatrix in="SourceAlpha" type="matrix" values="0 0 0 0 0 0 0 0 0 0 0 0 0 0 0 0 0 0 127 0" result="hardAlpha"/>
<feOffset dy="4"/>
<feGaussianBlur stdDeviation="2"/>
<feComposite in2="hardAlpha" operator="out"/>
<feColorMatrix type="matrix" values="0 0 0 0 0 0 0 0 0 0 0 0 0 0 0 0 0 0 0.25 0"/>
<feBlend mode="normal" in2="BackgroundImageFix" result="effect1_dropShadow_3238_5487"/>
<feBlend mode="normal" in="SourceGraphic" in2="effect1_dropShadow_3238_5487" result="shape"/>
</filter>
<clipPath id="clip0_3238_5487">
<rect width="127" height="127" fill="white" transform="translate(4)"/>
</clipPath>
</defs>
</svg>
