<svg width="122" height="128" viewBox="0 0 122 128" fill="none" xmlns="http://www.w3.org/2000/svg">
<path fill-rule="evenodd" clip-rule="evenodd" d="M61.6289 64.4147C77.7662 64.4147 90.8454 51.3367 90.8454 35.2074C90.8454 19.078 77.7662 6 61.6289 6C45.4916 6 32.4124 19.078 32.4124 35.2074C32.4124 51.3367 45.4916 64.4147 61.6289 64.4147ZM61.6289 70.4147C81.0784 70.4147 96.8454 54.6518 96.8454 35.2074C96.8454 15.7629 81.0784 0 61.6289 0C42.1793 0 26.4124 15.7629 26.4124 35.2074C26.4124 54.6518 42.1793 70.4147 61.6289 70.4147ZM115.673 121.997C115.107 116.817 113.81 111.733 111.812 106.9C109.047 100.211 104.994 94.1348 99.8867 89.0169C94.7895 83.9096 88.7408 79.8568 82.085 77.0881C81.9881 77.0978 81.7065 77.1483 81.19 77.3838C80.0251 77.915 78.6104 78.9243 76.621 80.4967C76.3364 80.7216 76.0372 80.9606 75.7257 81.2093C74.1036 82.5046 72.1483 84.0659 70.1912 85.3025C67.8578 86.7769 64.6912 88.3535 61 88.3535C57.3088 88.3535 54.1422 86.7769 51.8088 85.3025C49.8518 84.0659 47.8966 82.5047 46.2745 81.2095L46.2743 81.2093C45.9628 80.9605 45.6636 80.7216 45.379 80.4967C43.3896 78.9243 41.9748 77.915 40.81 77.3838C40.2934 77.1483 40.0118 77.0978 39.915 77.0881C33.2592 79.8568 27.2105 83.9097 22.1133 89.0169C17.0055 94.1348 12.9532 100.211 10.1882 106.9C8.19025 111.733 6.89285 116.817 6.32681 121.997L61 121.997H115.673ZM121.705 121.997C121.118 116.029 119.656 110.168 117.357 104.607C114.291 97.1919 109.798 90.4541 104.134 84.7785C98.4691 79.1029 91.7445 74.6008 84.3437 71.5292C80.3296 69.8632 76.1592 73.1887 71.9048 76.5811C68.3152 79.4435 64.6658 82.3535 61 82.3535C57.3342 82.3535 53.6848 79.4435 50.0952 76.5811C45.8408 73.1887 41.6704 69.8632 37.6563 71.5292C30.2554 74.6008 23.5309 79.1029 17.8665 84.7785C12.2021 90.4541 7.70888 97.1919 4.64335 104.607C2.34445 110.168 0.88221 116.029 0.294626 121.997C0.0986783 123.988 0 125.99 0 127.997H6L61 127.997H116H122C122 125.99 121.901 123.988 121.705 121.997ZM50.0786 97.9204H46.9544V113H50.0786V106.752H56.6187V113H59.7637V97.9204H56.6187V104.169H50.0786V97.9204ZM68.2199 97.9204H62.3047V113H65.429V107.647H67.8138L70.6985 113H74.1559L70.9484 107.137C71.8093 106.769 72.4689 106.217 72.9271 105.481C73.3853 104.745 73.6144 103.863 73.6144 102.836C73.6144 101.843 73.4027 100.979 72.9792 100.243C72.5557 99.4999 71.9378 98.9271 71.1255 98.5245C70.3201 98.1218 69.3516 97.9204 68.2199 97.9204ZM69.6987 101.086C70.157 101.482 70.3861 102.065 70.3861 102.836C70.3861 104.349 69.4696 105.106 67.6367 105.106H65.429V100.482H67.6367C68.5532 100.482 69.2405 100.684 69.6987 101.086Z" fill="white"/>
</svg>
