<svg width="80" height="115" viewBox="0 0 80 115" fill="none" xmlns="http://www.w3.org/2000/svg">
<path d="M17.0371 102.055H61.854" stroke="white" stroke-width="4" stroke-linecap="round"/>
<path d="M24.333 113H55.6006" stroke="white" stroke-width="4" stroke-linecap="round"/>
<path d="M17.6767 91.6338C17.6767 92.7384 18.5721 93.6338 19.6767 93.6338C20.7812 93.6338 21.6767 92.7384 21.6767 91.6338H17.6767ZM9.21619 62.4507L7.45141 63.3917L9.21619 62.4507ZM70.2262 62.4507L68.5248 61.3994L70.2262 62.4507ZM57.2825 91.6338C57.2825 92.7384 58.178 93.6338 59.2825 93.6338C60.3871 93.6338 61.2825 92.7384 61.2825 91.6338H57.2825ZM21.6767 91.6338C21.6767 87.6732 20.0869 82.237 18.0421 76.8967C15.968 71.4801 13.3161 65.8889 10.981 61.5097L7.45141 63.3917C9.72398 67.6536 12.3023 73.0929 14.3066 78.3271C16.34 83.6375 17.6767 88.4723 17.6767 91.6338H21.6767ZM10.981 61.5097C0.884915 42.5759 3.80457 28.3302 11.2814 18.8034C18.9044 9.09032 31.4751 4 41.0428 4V0C30.3277 0 16.5646 5.59278 8.13473 16.3339C-0.441338 27.2613 -3.29357 43.241 7.45141 63.3917L10.981 61.5097ZM41.0428 4C50.4003 4 62.1881 10.4664 69.1816 21.0186C76.0675 31.4086 78.2383 45.6795 68.5248 61.3994L71.9276 63.502C82.5007 46.3909 80.222 30.4365 72.5158 18.8089C64.917 7.34342 51.9699 0 41.0428 0V4ZM68.5248 61.3994C62.7934 70.6749 57.2825 78.0431 57.2825 91.6338H61.2825C61.2825 79.3766 66.0668 72.9871 71.9276 63.502L68.5248 61.3994Z" fill="white"/>
<path d="M39.9667 91.1111L39.9667 66.0971L32.6709 59.8435L39.9667 50.9844" stroke="white" stroke-width="4" stroke-linecap="round"/>
<path d="M32.671 46.2958L39.9668 39" stroke="white" stroke-width="4" stroke-linecap="round"/>
</svg>
