<svg width="128" height="111" viewBox="0 0 128 111" fill="none" xmlns="http://www.w3.org/2000/svg">
<path fill-rule="evenodd" clip-rule="evenodd" d="M4 28C4 23.5817 7.58172 20 12 20H82.798V16H12C5.37258 16 0 21.3726 0 28V81.5463C0 88.1738 5.37258 93.5463 12 93.5463H49V106.613H29C27.8954 106.613 27 107.509 27 108.613C27 109.718 27.8954 110.613 29 110.613H74C75.1046 110.613 76 109.718 76 108.613C76 107.509 75.1046 106.613 74 106.613H53V93.5463H89.937C96.5644 93.5463 101.937 88.1738 101.937 81.5463V46.1928H97.937V81.5463C97.937 85.9646 94.3553 89.5463 89.937 89.5463H12C7.58172 89.5463 4 85.9646 4 81.5463V28Z" fill="white"/>
<path fill-rule="evenodd" clip-rule="evenodd" d="M124.857 7.39104L127.366 7.98299C127.82 9.4155 128.033 10.9137 127.996 12.4161C128.004 15.6995 126.721 18.8544 124.423 21.1988C123.304 22.351 121.966 23.2672 120.487 23.8932C119.008 24.5193 117.419 24.8425 115.813 24.8438C114.218 24.847 112.639 24.5253 111.169 23.9012C105.75 29.5439 96.2116 39.1727 91.2331 43.86C90.4773 44.5388 89.5029 44.9248 88.4866 44.9441C87.8916 44.9152 87.3031 44.7769 86.7564 44.5356C86.2257 44.275 85.7497 43.9147 85.3509 43.4804C84.4613 42.682 83.9246 41.5632 83.8587 40.3694C83.7751 39.2595 84.0967 38.1561 84.772 37.2714C91.3019 30.5 97.9201 23.8143 104.625 17.216C103.382 14.157 103.382 10.7332 104.625 7.67415C105.27 6.13704 106.229 4.75114 107.439 3.60453C108.526 2.46812 109.821 1.55077 111.253 0.90217C112.737 0.283292 114.332 -0.0233382 115.939 0.00138443C117.412 0.0198234 118.874 0.267278 120.271 0.734881L120.85 3.28282L114.238 10.2221L118.078 14.1341L124.857 7.39104ZM122.368 19.0047C124.092 17.2418 125.05 14.8772 125.044 12.4161V11.5861L119.103 17.4284H116.981L110.886 11.3609V9.12184L116.73 3.09623H115.913C114.73 3.09348 113.557 3.32756 112.466 3.78468C111.316 4.24004 110.274 4.93175 109.408 5.81508C108.542 6.69842 107.871 7.75372 107.439 8.91273C106.789 10.6157 106.636 12.4683 106.998 14.2549C107.359 16.0414 108.22 17.6886 109.481 19.0047C111.201 20.6927 113.515 21.6383 115.924 21.6383C118.334 21.6383 120.648 20.6927 122.368 19.0047ZM95.1985 18.2873H90.2747L88.9111 17.5989L83 8.2114L83.2123 6.28436L85.8848 3.55305L87.7855 3.34073L96.9834 9.39529L97.6909 10.8012L97.5076 16.1061V16.2445L99.6463 18.4257L97.4658 20.594L95.1985 18.2873ZM94.6775 11.5057L87.2355 6.60286L86.2932 7.51973L91.0916 15.1185H94.5521L94.6775 11.5057ZM112.253 26.8287L110.086 28.9938L120.149 39.2563C120.289 39.3958 120.399 39.5636 120.47 39.7485C120.542 39.9379 120.58 40.1382 120.583 40.3405C120.58 40.5432 120.541 40.7437 120.467 40.9324C120.396 41.1174 120.286 41.2851 120.145 41.4246C120.01 41.574 119.841 41.6897 119.653 41.7624C119.283 41.9128 118.869 41.9128 118.499 41.7624C118.311 41.6898 118.142 41.5741 118.007 41.4246L107.934 31.1493L105.75 33.3304L115.855 43.6348C116.248 44.0663 116.727 44.4114 117.261 44.6482C118.097 44.9991 119.019 45.0901 119.908 44.9094C120.796 44.7287 121.61 44.2845 122.242 43.6348C123.084 42.7502 123.553 41.576 123.553 40.355C123.553 39.134 123.084 37.9597 122.242 37.0751L112.253 26.8287Z" fill="white"/>
</svg>
