<svg width="120" height="110" viewBox="0 0 120 110" fill="none" xmlns="http://www.w3.org/2000/svg">
<path fill-rule="evenodd" clip-rule="evenodd" d="M90.5742 35.397L84.5258 29.3486L106.703 7.17157C108.265 5.60948 110.798 5.60948 112.36 7.17157L112.751 7.56313C114.313 9.12523 114.313 11.6579 112.751 13.22L90.5742 35.397ZM78.8371 32.1451L77.7868 33.2189C76.8207 34.2066 75.2653 34.7297 73.421 34.8591C71.6106 34.9861 69.8324 34.709 68.8002 34.4276L67.0153 33.9409L66.4188 35.7284L59.3978 56.7676L59 57.9597L59.8711 58.8503L61.808 60.8304L62.693 61.7352L63.8716 61.3049L84.2084 53.8793L85.9541 53.2418L85.4448 51.4196C85.181 50.4756 84.9237 48.7946 85.0773 47.0308C85.2314 45.2622 85.7748 43.6423 86.8785 42.5139L88.0293 41.3374L90.5742 43.8823L94.8169 39.6396L100.161 34.2954V77.1366C100.161 80.4503 97.4748 83.1366 94.1611 83.1366H14C10.6863 83.1366 8 80.4503 8 77.1366V21.4086C8 18.0949 10.6863 15.4086 14 15.4086H89.9805L80.2832 25.1059L76.0405 29.3486L78.8371 32.1451ZM97.9805 7.40865H14C6.26802 7.40865 0 13.6766 0 21.4086V77.1366C0 84.8686 6.26801 91.1366 14 91.1366H50.3262V102.283H32.8264C30.7353 102.283 29.04 103.978 29.04 106.069C29.04 108.16 30.7353 109.856 32.8264 109.856H75.3342C77.4254 109.856 79.1206 108.16 79.1206 106.069C79.1206 103.978 77.4254 102.283 75.3342 102.283H57.838V91.1366H94.1611C101.893 91.1366 108.161 84.8686 108.161 77.1366V26.2954L116.994 17.4626C120.899 13.5574 120.899 7.22574 116.994 3.32049L116.602 2.92893C112.697 -0.97631 106.365 -0.976312 102.46 2.92893L97.9805 7.40865ZM70.1222 48.9215L64.162 55.0151L69.6022 38.713C70.8041 38.8963 72.2301 38.9961 73.6918 38.8936C75.3964 38.774 77.3319 38.365 79.0114 37.3303L82.8365 41.2411C81.7547 42.9723 81.2895 44.9262 81.1374 46.672C81.0124 48.1074 81.0897 49.4919 81.2577 50.6625L65.6378 56.3658L71.4616 50.4117C72.6318 51.0673 74.1302 50.8885 75.1214 49.8751C76.3251 48.6445 76.3251 46.6493 75.1214 45.4187C73.9177 44.1881 71.9662 44.1881 70.7625 45.4187C69.8361 46.3658 69.6227 47.7658 70.1222 48.9215ZM72.161 46.8485C72.5923 46.4075 73.2916 46.4075 73.7229 46.8485C74.1542 47.2894 74.1542 48.0044 73.7229 48.4453C73.2916 48.8863 72.5923 48.8863 72.161 48.4453C71.7297 48.0044 71.7297 47.2894 72.161 46.8485Z" fill="white"/>
</svg>
