<svg width="128" height="114" viewBox="0 0 128 114" fill="none" xmlns="http://www.w3.org/2000/svg">
<path fill-rule="evenodd" clip-rule="evenodd" d="M14 21.5508C10.6863 21.5508 8 24.2371 8 27.5508V81.7423C8 85.056 10.6863 87.7423 14 87.7423H91.9323C95.246 87.7423 97.9323 85.056 97.9323 81.7423V45.9909H105.932V81.7423C105.932 89.4743 99.6642 95.7423 91.9323 95.7423H56.6396V106.581H73.739C75.7877 106.581 77.4486 108.242 77.4486 110.29C77.4486 112.339 75.7877 114 73.739 114H32.192C30.1432 114 28.4824 112.339 28.4824 110.29C28.4824 108.242 30.1433 106.581 32.192 106.581H49.2949V95.7423H14C6.26799 95.7423 0 89.4742 0 81.7423V27.5508C0 19.8188 6.26801 13.5508 14 13.5508H84.7941V21.5508H14Z" fill="white"/>
<path fill-rule="evenodd" clip-rule="evenodd" d="M124.857 7.39187L127.365 7.98562C127.82 9.4153 128.033 10.9153 127.996 12.4192C128.001 14.6106 127.431 16.7473 126.366 18.6223C125.837 19.5559 125.186 20.4231 124.423 21.2005C123.304 22.3528 121.966 23.2669 120.487 23.8958C119.009 24.5208 117.419 24.845 115.813 24.845C114.219 24.8489 112.64 24.5247 111.17 23.9036C105.75 29.5442 96.2119 39.1731 91.2334 43.8606C90.4775 44.5403 89.5029 44.927 88.4863 44.9466C88.0869 44.927 87.6904 44.8606 87.3076 44.7434C87.1201 44.6848 86.9365 44.6145 86.7568 44.5364C86.2256 44.2747 85.75 43.9153 85.3506 43.4817C84.4609 42.6848 83.9248 41.5637 83.8584 40.3723C83.7754 39.2591 84.0967 38.1575 84.7725 37.2708C88.9141 32.9778 93.0918 28.7161 97.3037 24.4895C99.7324 22.0559 102.173 19.6301 104.625 17.2161C103.382 14.1575 103.382 10.7356 104.625 7.67702C104.955 6.88796 105.367 6.14187 105.854 5.44655C106.317 4.78249 106.848 4.1653 107.438 3.60671C108.525 2.46999 109.82 1.55202 111.253 0.903586C112.736 0.286398 114.332 -0.0221957 115.938 0.00124184C117.412 0.0207731 118.874 0.266867 120.271 0.735617L120.85 3.28249L114.237 10.2239L118.077 14.1341L124.857 7.39187ZM122.368 19.0051C124.092 17.2434 125.05 14.8801 125.044 12.4192V11.5872L119.104 17.4309H116.98L110.887 11.3606V9.12234L116.73 3.0989H115.913C114.729 3.09499 113.558 3.32937 112.466 3.7864C111.315 4.23952 110.274 4.93484 109.408 5.81765C108.542 6.70046 107.871 7.75515 107.438 8.9153C106.789 10.6184 106.636 12.47 106.997 14.2551C107.359 16.0442 108.221 17.6887 109.481 19.0051C111.201 20.6926 113.515 21.638 115.925 21.638C118.334 21.638 120.647 20.6926 122.368 19.0051ZM95.1982 18.2903H90.2744L88.9111 17.5989L83 8.21218L83.2119 6.2864L85.8848 3.55593L87.7852 3.34109L96.9834 9.39577L97.6914 10.802L97.5078 16.1067V16.2473L99.6465 18.427L97.4658 20.595L95.1982 18.2903ZM94.6777 11.5051L87.2354 6.6028L86.293 7.52077L91.0918 15.1184H94.5518L94.6777 11.5051ZM122.242 37.0755L112.253 26.8294L110.086 28.9934L120.148 39.2591C120.289 39.3958 120.399 39.5637 120.471 39.7512C120.52 39.8801 120.553 40.013 120.57 40.1536L120.583 40.3411C120.58 40.5442 120.541 40.7434 120.467 40.9348C120.396 41.1184 120.286 41.2864 120.146 41.427C120.01 41.5755 119.842 41.6926 119.653 41.763C119.283 41.9153 118.869 41.9153 118.499 41.763C118.374 41.7161 118.258 41.6497 118.155 41.5676C118.103 41.5247 118.053 41.4778 118.007 41.427L107.935 31.1497L105.75 33.3333L115.855 43.638C116.152 43.9622 116.5 44.2395 116.882 44.4583C117.005 44.5286 117.131 44.5911 117.261 44.6497C117.803 44.8762 118.382 44.9934 118.964 45.0012C119.279 45.0051 119.596 44.9739 119.907 44.9114C120.796 44.7317 121.609 44.2864 122.242 43.638C123.084 42.7512 123.553 41.5755 123.553 40.3567C123.553 39.1341 123.084 37.9622 122.242 37.0755Z" fill="white"/>
</svg>
