<svg width="128" height="114" viewBox="0 0 128 114" fill="none" xmlns="http://www.w3.org/2000/svg">
<path fill-rule="evenodd" clip-rule="evenodd" d="M116.316 40.1765H87.7295V11.6472L91.5085 15.4186L88.8525 18.0693C88.2661 18.6545 88.2652 19.6043 88.8504 20.1907C89.4356 20.777 90.3853 20.778 90.9717 20.1928L93.632 17.5378L97.3889 21.2872L94.9883 23.6831C94.4019 24.2683 94.4009 25.218 94.9861 25.8044C95.5713 26.3908 96.5211 26.3917 97.1074 25.8065L99.5123 23.4064L103.526 27.4121L101.126 29.8075C100.54 30.3927 100.539 31.3424 101.124 31.9288C101.709 32.5152 102.659 32.5161 103.245 31.9309L105.65 29.5313L109.66 33.5341L107.262 35.928C106.675 36.5132 106.674 37.463 107.26 38.0493C107.845 38.6357 108.795 38.6367 109.381 38.0515L111.784 35.6533L116.316 40.1765ZM81.7295 11.552V5.65921V5.47649V4.00802V2.00401C81.7295 0.223167 83.8818 -0.669605 85.1423 0.588377L86.5608 2.00401L87.6002 3.04133L87.7295 3.1704L124.81 40.1765L124.941 40.3078L125.987 41.3509L127.399 42.7608C128.661 44.0202 127.769 46.1765 125.987 46.1765H123.991H122.514H122.328H108.161V81.28C108.161 89.012 101.893 95.28 94.1611 95.28H57.838V106.426H75.3342C77.4254 106.426 79.1206 108.121 79.1206 110.213C79.1206 112.304 77.4254 113.999 75.3342 113.999H32.8264C30.7353 113.999 29.04 112.304 29.04 110.213C29.04 108.121 30.7353 106.426 32.8264 106.426H50.3262V95.28H14C6.26801 95.28 0 89.012 0 81.28V25.552C0 17.82 6.26802 11.552 14 11.552H81.7295ZM81.7295 19.552H14C10.6863 19.552 8 22.2383 8 25.552V81.28C8 84.5937 10.6863 87.28 14 87.28H94.1611C97.4748 87.28 100.161 84.5937 100.161 81.28V46.1765H83.7295C82.6249 46.1765 81.7295 45.281 81.7295 44.1765V19.552Z" fill="white"/>
</svg>
