<svg width="122" height="128" viewBox="0 0 122 128" fill="none" xmlns="http://www.w3.org/2000/svg">
<path d="M94.8451 35.2074C94.8451 53.5468 79.9741 68.4147 61.6286 68.4147C43.2831 68.4147 28.4121 53.5468 28.4121 35.2074C28.4121 16.8679 43.2831 2 61.6286 2C79.9741 2 94.8451 16.8679 94.8451 35.2074Z" stroke="white" stroke-width="4"/>
<path d="M115.508 105.372C118.219 111.928 119.727 118.915 119.966 125.997H61L2.03377 125.997C2.27299 118.915 3.78115 111.928 6.49164 105.372C9.45698 98.1984 13.8032 91.681 19.2821 86.1913C24.7609 80.7016 31.265 76.3472 38.423 73.3764C39.5787 72.8968 40.8533 73.0073 42.4697 73.7444C44.131 74.502 45.893 75.8044 47.8593 77.3586C48.1746 77.6078 48.4955 77.8638 48.8211 78.1235C50.4491 79.4222 52.1942 80.8144 53.9455 81.921C56.0471 83.2489 58.4345 84.3535 61 84.3535C63.5655 84.3535 65.9529 83.2489 68.0545 81.921C69.8058 80.8144 71.5509 79.4222 73.1789 78.1235C73.5045 77.8638 73.8254 77.6078 74.1407 77.3586C76.1069 75.8044 77.869 74.502 79.5303 73.7444C81.1467 73.0073 82.4213 72.8968 83.577 73.3764C90.735 76.3472 97.2391 80.7016 102.718 86.1913C108.197 91.681 112.543 98.1984 115.508 105.372Z" stroke="white" stroke-width="4"/>
<path fill-rule="evenodd" clip-rule="evenodd" d="M59.5036 90C58.399 90 57.5036 90.8954 57.5036 92V95.8685C56.8784 96.1413 56.2857 96.4737 55.733 96.8584L52.3593 94.933C51.3999 94.3855 50.1706 94.7149 49.6135 95.6687L47.2856 99.6542C46.7286 100.608 47.0546 101.825 48.014 102.373L51.3879 104.298C51.3613 104.597 51.3477 104.899 51.3477 105.205C51.3477 105.609 51.3715 106.008 51.4178 106.4L48.0146 108.343C47.0553 108.89 46.7292 110.107 47.2863 111.061L49.6142 115.046C50.1713 116 51.4006 116.33 52.3599 115.782L55.7848 113.828C55.8484 113.791 55.9093 113.752 55.9673 113.71C56.4616 114.034 56.9858 114.318 57.535 114.555C57.5144 114.671 57.5036 114.789 57.5036 114.91V118.785C57.5036 119.889 58.399 120.785 59.5036 120.785H64.1939C65.2985 120.785 66.1939 119.889 66.1939 118.785V114.91C66.1939 114.736 66.1717 114.567 66.1299 114.406C66.6379 114.165 67.1228 113.884 67.5805 113.567C67.6859 113.663 67.8034 113.748 67.9322 113.822L71.3571 115.776C72.3164 116.324 73.5458 115.994 74.1028 115.041L76.4307 111.055C76.9878 110.101 76.6617 108.884 75.7024 108.337L72.2775 106.382C72.1671 106.319 72.053 106.268 71.9369 106.228C71.9707 105.891 71.9881 105.55 71.9881 105.205C71.9881 104.956 71.979 104.709 71.9613 104.464C72.0685 104.426 72.1738 104.377 72.276 104.319L75.7009 102.364C76.6602 101.817 76.9863 100.6 76.4292 99.6461L74.1013 95.6606C73.5442 94.7068 72.3149 94.3774 71.3556 94.9249L67.9307 96.8795C67.876 96.9107 67.8234 96.944 67.7729 96.9794C67.2765 96.6189 66.7463 96.3011 66.1878 96.0318C66.1919 95.9799 66.1939 95.9275 66.1939 95.8746V92C66.1939 90.8954 65.2985 90 64.1939 90H59.5036ZM61.8577 110.762C64.8264 110.762 67.233 108.358 67.233 105.392C67.233 102.427 64.8264 100.023 61.8577 100.023C58.889 100.023 56.4823 102.427 56.4823 105.392C56.4823 108.358 58.889 110.762 61.8577 110.762Z" fill="white"/>
</svg>
