<svg width="128" height="114" viewBox="0 0 128 114" fill="none" xmlns="http://www.w3.org/2000/svg">
<path fill-rule="evenodd" clip-rule="evenodd" d="M94.2494 4C94.2494 1.79086 96.0403 0 98.2494 0H105.606C107.815 0 109.606 1.79086 109.606 4V9.7974C109.606 10.0529 109.582 10.3029 109.536 10.5451C110.565 11.0326 111.54 11.612 112.451 12.2725C112.645 12.1053 112.859 11.9543 113.091 11.8229L118.319 8.86443C120.242 7.77648 122.71 8.43756 123.831 10.341L127.449 16.4829C128.57 18.3864 127.921 20.8114 125.998 21.8993L120.77 24.8578C120.456 25.0354 120.127 25.1664 119.793 25.2529C119.829 25.7131 119.847 26.1781 119.847 26.6473C119.847 27.2838 119.813 27.9125 119.747 28.5318C120.098 28.6181 120.442 28.7529 120.771 28.9388L125.999 31.8973C127.922 32.9852 128.572 35.4102 127.45 37.3136L123.832 43.4556C122.711 45.359 120.243 46.0201 118.321 44.9322L113.092 41.9737C112.733 41.7703 112.418 41.5201 112.151 41.2353C111.282 41.8395 110.356 42.3709 109.384 42.8206C109.528 43.2328 109.606 43.6756 109.606 44.1367V49.9341C109.606 52.0317 107.991 53.7522 105.937 53.9206V81.9331C105.937 89.6651 99.669 95.9331 91.937 95.9331H56.6419V106.641H73.775C75.8059 106.641 77.4523 108.288 77.4523 110.319C77.4523 112.35 75.8059 113.996 73.775 113.996H32.1611C30.1302 113.996 28.4838 112.35 28.4838 110.319C28.4838 108.288 30.1302 106.641 32.1611 106.641H49.2973V95.9331H14C6.26801 95.9331 0 89.6651 0 81.9331V28.3867C0 20.6547 6.26801 14.3867 14 14.3867H77.6861L80.0624 10.3529C81.1837 8.44947 83.6513 7.78839 85.574 8.87634L90.8023 11.8348C90.9098 11.8956 91.0133 11.9606 91.1128 12.0295C92.1001 11.3472 93.1596 10.7586 94.2778 10.2768C94.2591 10.1196 94.2494 9.95962 94.2494 9.7974V4ZM78.7357 22.3867H14C10.6863 22.3867 8 25.073 8 28.3867V81.9331C8 85.2468 10.6863 87.9331 14 87.9331H91.937C95.2507 87.9331 97.937 85.2468 97.937 81.9331V53.9221C95.8739 53.7627 94.2494 52.0381 94.2494 49.9341V44.1367C94.2494 43.7664 94.2998 43.4078 94.3939 43.0675C93.3667 42.6333 92.3883 42.1091 91.469 41.5053C91.2677 41.6817 91.0451 41.8404 90.8022 41.9779L85.5739 44.9364C83.6512 46.0243 81.1836 45.3632 80.0623 43.4598L76.4442 37.3178C75.3229 35.4144 75.9726 32.9894 77.8953 31.9015L83.1236 28.943C83.2465 28.8735 83.3716 28.8111 83.4985 28.7557C83.4156 28.0642 83.3729 27.3607 83.3729 26.6473C83.3729 26.1034 83.3977 25.5652 83.4462 25.0337C83.3373 24.9843 83.2296 24.9296 83.1237 24.8697L78.7357 22.3867ZM111.445 26.9698C111.445 32.1653 107.193 36.3771 101.947 36.3771C96.7012 36.3771 92.4486 32.1653 92.4486 26.9698C92.4486 21.7743 96.7012 17.5625 101.947 17.5625C107.193 17.5625 111.445 21.7743 111.445 26.9698Z" fill="white"/>
</svg>
