<svg width="126" height="111" viewBox="0 0 126 111" fill="none" xmlns="http://www.w3.org/2000/svg">
<path fill-rule="evenodd" clip-rule="evenodd" d="M92.249 4C92.249 1.78906 94.04 0 96.249 0H103.605C104.692 0 105.678 0.433594 106.399 1.13672C107.144 1.85938 107.605 2.875 107.605 4V9.79688C107.605 10 107.59 10.1953 107.562 10.3867L107.536 10.5469C108.564 11.0312 109.54 11.6133 110.45 12.2734C110.645 12.1055 110.858 11.9531 111.091 11.8242L116.319 8.86328C118.241 7.77734 120.709 8.4375 121.83 10.3398L125.448 16.4844C126.57 18.3867 125.92 20.8125 123.998 21.8984L118.77 24.8594C118.455 25.0352 118.127 25.168 117.792 25.2539C117.81 25.4805 117.823 25.707 117.832 25.9336C117.842 26.168 117.847 26.4062 117.847 26.6484C117.847 27.0273 117.835 27.4023 117.812 27.7734C117.796 28.0273 117.774 28.2812 117.747 28.5312C118.015 28.5977 118.278 28.6914 118.534 28.8164L118.771 28.9375L123.999 31.8984C125.922 32.9844 126.571 35.4102 125.45 37.3125L121.832 43.457C120.711 45.3594 118.243 46.0195 116.32 44.9336L111.092 41.9727C110.913 41.8711 110.746 41.7578 110.59 41.6367C110.432 41.5117 110.285 41.3789 110.15 41.2344C109.281 41.8398 108.356 42.3711 107.384 42.8203C107.527 43.2344 107.605 43.6758 107.605 44.1367V49.9336C107.605 52.1445 105.814 53.9336 103.605 53.9336H101.937V81.9336C101.937 88.5586 96.5645 93.9336 89.9365 93.9336H53V107H74C75.1045 107 76 107.895 76 109C76 110.105 75.1045 111 74 111H29C27.8955 111 27 110.105 27 109C27 107.895 27.8955 107 29 107H49V93.9336H12C5.37305 93.9336 0 88.5586 0 81.9336V28.3867C0 21.7578 5.37305 16.3867 12 16.3867H74.5088L78.0625 10.3516C79.1836 8.44922 81.6514 7.78906 83.5732 8.875L88.8018 11.8359C88.8779 11.8789 88.9521 11.9219 89.0244 11.9727L89.1123 12.0312C90.0996 11.3477 91.1592 10.7578 92.2773 10.2773C92.2588 10.1211 92.249 9.96094 92.249 9.79688V4ZM74.3818 20.3867H12C7.58203 20.3867 4 23.9688 4 28.3867V81.9336C4 86.3516 7.58203 89.9336 12 89.9336H89.9365C94.3555 89.9336 97.9365 86.3516 97.9365 81.9336V53.9336H96.249C94.04 53.9336 92.249 52.1445 92.249 49.9336V44.1367C92.249 43.7656 92.2998 43.4062 92.3936 43.0664C91.3662 42.6328 90.3877 42.1094 89.4688 41.5039C89.2676 41.6836 89.0449 41.8398 88.8018 41.9766L83.5732 44.9375C81.6514 46.0234 79.1836 45.3633 78.0625 43.4609L74.4443 37.3164C73.3223 35.4141 73.9727 32.9883 75.8945 31.9023L81.123 28.9414L81.3398 28.832L81.498 28.7539C81.415 28.0625 81.373 27.3594 81.373 26.6484C81.373 26.1016 81.3975 25.5664 81.4463 25.0352L81.123 24.8711L75.8955 21.9102C75.2334 21.5352 74.7217 21.0039 74.3818 20.3867ZM109.445 26.9688C109.445 32.1641 105.192 36.3789 99.9463 36.3789C94.7012 36.3789 90.4482 32.1641 90.4482 26.9688C90.4482 21.7734 94.7012 17.5625 99.9463 17.5625C105.192 17.5625 109.445 21.7734 109.445 26.9688Z" fill="white"/>
</svg>
