<svg width="125" height="112" viewBox="0 0 125 112" fill="none" xmlns="http://www.w3.org/2000/svg">
<path fill-rule="evenodd" clip-rule="evenodd" d="M62.693 66.7352L61.808 65.8304L59.8711 63.8502L59 62.9596L59.3978 61.7676L66.4188 40.7283L67.0153 38.9409L68.8002 39.4275C69.8324 39.7089 71.6106 39.9861 73.421 39.859C75.2653 39.7296 76.8207 39.2065 77.7868 38.2188L79.1853 36.7891L80.5838 38.2188L86.8785 44.6544L88.277 46.0841L86.8785 47.5139C85.7748 48.6423 85.2314 50.2622 85.0773 52.0307C84.9237 53.7945 85.181 55.4756 85.4448 56.4195L85.9541 58.2418L84.2084 58.8792L63.8716 66.3048L62.693 66.7352ZM70.1222 53.9215L64.162 60.015L69.6022 43.713C70.8041 43.8963 72.2301 43.9961 73.6918 43.8935C75.3964 43.7739 77.3319 43.3649 79.0114 42.3303L82.8365 46.2411C81.7547 47.9723 81.2895 49.9261 81.1374 51.672C81.0124 53.1073 81.0897 54.4919 81.2577 55.6624L65.6378 61.3658L71.4616 55.4117C72.6318 56.0673 74.1302 55.8884 75.1214 54.8751C76.3251 53.6445 76.3251 51.6493 75.1214 50.4187C73.9177 49.1881 71.9662 49.1881 70.7625 50.4187C69.8361 51.3657 69.6227 52.7657 70.1222 53.9215ZM72.161 51.8484C72.5923 51.4075 73.2916 51.4075 73.7229 51.8484C74.1542 52.2894 74.1542 53.0043 73.7229 53.4453C73.2916 53.8862 72.5923 53.8862 72.161 53.4453C71.7297 53.0043 71.7297 52.2894 72.161 51.8484Z" fill="white"/>
<path d="M90.5742 44.6402L80.2832 34.3491L104.582 10.0508C107.315 7.31712 111.747 7.31712 114.481 10.0508L114.873 10.4423C117.606 13.176 117.606 17.6082 114.873 20.3418L90.5742 44.6402Z" stroke="white" stroke-width="6"/>
<path fill-rule="evenodd" clip-rule="evenodd" d="M4 29C4 24.5817 7.58172 21 12 21H82.798V17H12C5.37258 17 0 22.3726 0 29V82.5463C0 89.1738 5.37258 94.5463 12 94.5463H49V107.613H29C27.8954 107.613 27 108.509 27 109.613C27 110.718 27.8954 111.613 29 111.613H74C75.1046 111.613 76 110.718 76 109.613C76 108.509 75.1046 107.613 74 107.613H53V94.5463H89.937C96.5644 94.5463 101.937 89.1738 101.937 82.5463V47.1928H97.937V82.5463C97.937 86.9646 94.3553 90.5463 89.937 90.5463H12C7.58172 90.5463 4 86.9646 4 82.5463V29Z" fill="white"/>
</svg>
