<svg width="122" height="128" viewBox="0 0 122 128" fill="none" xmlns="http://www.w3.org/2000/svg">
<path d="M94.8451 35.2074C94.8451 53.5468 79.9741 68.4147 61.6286 68.4147C43.2831 68.4147 28.4121 53.5468 28.4121 35.2074C28.4121 16.8679 43.2831 2 61.6286 2C79.9741 2 94.8451 16.8679 94.8451 35.2074Z" stroke="white" stroke-width="4"/>
<path d="M115.508 105.372C118.219 111.928 119.727 118.915 119.966 125.997H61L2.03377 125.997C2.27299 118.915 3.78115 111.928 6.49164 105.372C9.45698 98.1984 13.8032 91.681 19.2821 86.1913C24.7609 80.7016 31.265 76.3472 38.423 73.3764C39.5787 72.8968 40.8533 73.0073 42.4697 73.7444C44.131 74.502 45.893 75.8044 47.8593 77.3586C48.1746 77.6078 48.4955 77.8638 48.8211 78.1235C50.4491 79.4222 52.1942 80.8144 53.9455 81.921C56.0471 83.2489 58.4345 84.3535 61 84.3535C63.5655 84.3535 65.9529 83.2489 68.0545 81.921C69.8058 80.8144 71.5509 79.4222 73.1789 78.1235C73.5045 77.8638 73.8254 77.6078 74.1407 77.3586C76.1069 75.8044 77.869 74.502 79.5303 73.7444C81.1467 73.0073 82.4213 72.8968 83.577 73.3764C90.735 76.3472 97.2391 80.7016 102.718 86.1913C108.197 91.681 112.543 98.1984 115.508 105.372Z" stroke="white" stroke-width="4"/>
<path d="M46.9541 97.9204H50.0783V104.169H56.6184V97.9204H59.7634V113H56.6184V106.752H50.0783V113H46.9541V97.9204ZM62.3044 97.9204H68.2196C69.3513 97.9204 70.3198 98.1218 71.1251 98.5245C71.9374 98.9271 72.5553 99.4999 72.9789 100.243C73.4024 100.979 73.6141 101.843 73.6141 102.836C73.6141 103.863 73.385 104.745 72.9268 105.481C72.4686 106.217 71.809 106.769 70.9481 107.137L74.1556 113H70.6982L67.8135 107.647H65.4287V113H62.3044V97.9204ZM67.6364 105.106C69.4693 105.106 70.3857 104.349 70.3857 102.836C70.3857 102.065 70.1566 101.482 69.6984 101.086C69.2402 100.684 68.5529 100.482 67.6364 100.482H65.4287V105.106H67.6364Z" fill="white"/>
</svg>
