<svg width="122" height="128" viewBox="0 0 122 128" fill="none" xmlns="http://www.w3.org/2000/svg">
<path fill-rule="evenodd" clip-rule="evenodd" d="M61.6286 64.4147C77.7659 64.4147 90.8451 51.3367 90.8451 35.2074C90.8451 19.078 77.7659 6 61.6286 6C45.4913 6 32.4121 19.078 32.4121 35.2074C32.4121 51.3367 45.4913 64.4147 61.6286 64.4147ZM61.6286 70.4147C81.0781 70.4147 96.8451 54.6518 96.8451 35.2074C96.8451 15.7629 81.0781 0 61.6286 0C42.1791 0 26.4121 15.7629 26.4121 35.2074C26.4121 54.6518 42.1791 70.4147 61.6286 70.4147ZM115.673 121.997C115.107 116.817 113.81 111.733 111.812 106.9C109.047 100.211 104.994 94.1348 99.8867 89.0169C94.7895 83.9096 88.7408 79.8568 82.085 77.0881C81.9881 77.0978 81.7065 77.1483 81.19 77.3838C80.0251 77.915 78.6104 78.9243 76.621 80.4967C76.3364 80.7216 76.0372 80.9606 75.7257 81.2093C74.1036 82.5046 72.1483 84.0659 70.1912 85.3025C67.8578 86.7769 64.6912 88.3535 61 88.3535C57.3088 88.3535 54.1422 86.7769 51.8088 85.3025C49.8518 84.0659 47.8966 82.5047 46.2745 81.2095L46.2743 81.2093C45.9628 80.9605 45.6636 80.7216 45.379 80.4967C43.3896 78.9243 41.9748 77.915 40.81 77.3838C40.2934 77.1483 40.0118 77.0978 39.915 77.0881C33.2592 79.8568 27.2105 83.9097 22.1133 89.0169C17.0055 94.1348 12.9532 100.211 10.1882 106.9C8.19025 111.733 6.89285 116.817 6.32681 121.997L61 121.997H115.673ZM121.705 121.997C121.118 116.029 119.656 110.168 117.357 104.607C114.291 97.1919 109.798 90.4541 104.134 84.7785C98.4691 79.1029 91.7445 74.6008 84.3437 71.5292C80.3296 69.8632 76.1592 73.1887 71.9048 76.5811C68.3152 79.4435 64.6658 82.3535 61 82.3535C57.3342 82.3535 53.6848 79.4435 50.0952 76.5811C45.8408 73.1887 41.6704 69.8632 37.6563 71.5292C30.2554 74.6008 23.5309 79.1029 17.8665 84.7785C12.2021 90.4541 7.70888 97.1919 4.64335 104.607C2.34445 110.168 0.88221 116.029 0.294626 121.997C0.0986783 123.988 0 125.99 0 127.997H6L61 127.997H116H122C122 125.99 121.901 123.988 121.705 121.997ZM57.5032 92C57.5032 90.8954 58.3986 90 59.5032 90H64.1935C65.2981 90 66.1935 90.8954 66.1935 92V95.8746C66.1935 95.9275 66.1914 95.9799 66.1874 96.0318C66.7459 96.3011 67.2761 96.6189 67.7724 96.9794C67.823 96.944 67.8756 96.9107 67.9303 96.8795L71.3551 94.9249C72.3145 94.3774 73.5438 94.7068 74.1009 95.6606L76.4287 99.6461C76.9858 100.6 76.6598 101.817 75.7004 102.364L72.2756 104.319C72.1733 104.377 72.068 104.426 71.9608 104.464C71.9786 104.709 71.9876 104.956 71.9876 105.205C71.9876 105.55 71.9703 105.891 71.9364 106.228C72.0526 106.268 72.1666 106.319 72.2771 106.382L75.702 108.337C76.6613 108.884 76.9874 110.101 76.4303 111.055L74.1024 115.041C73.5453 115.994 72.316 116.324 71.3567 115.776L67.9318 113.822C67.8029 113.748 67.6855 113.663 67.5801 113.567C67.1224 113.884 66.6374 114.165 66.1295 114.406C66.1713 114.567 66.1935 114.736 66.1935 114.91V118.785C66.1935 119.889 65.2981 120.785 64.1935 120.785H59.5032C58.3986 120.785 57.5032 119.889 57.5032 118.785V114.91C57.5032 114.789 57.5139 114.671 57.5345 114.555C56.9854 114.318 56.4611 114.034 55.9668 113.71C55.9088 113.752 55.848 113.791 55.7844 113.828L52.3595 115.782C51.4002 116.33 50.1709 116 49.6138 115.046L47.2859 111.061C46.7288 110.107 47.0549 108.89 48.0142 108.343L51.4174 106.4C51.3711 106.008 51.3473 105.609 51.3473 105.205C51.3473 104.899 51.3609 104.597 51.3875 104.298L48.0135 102.373C47.0542 101.825 46.7281 100.608 47.2852 99.6542L49.6131 95.6687C50.1702 94.7149 51.3995 94.3855 52.3588 94.933L55.7326 96.8584C56.2853 96.4737 56.878 96.1413 57.5032 95.8685V92ZM67.2325 105.392C67.2325 108.358 64.8259 110.762 61.8572 110.762C58.8885 110.762 56.4819 108.358 56.4819 105.392C56.4819 102.427 58.8885 100.023 61.8572 100.023C64.8259 100.023 67.2325 102.427 67.2325 105.392Z" fill="white"/>
</svg>
