<svg width="126" height="111" viewBox="0 0 126 111" fill="none" xmlns="http://www.w3.org/2000/svg">
<path fill-rule="evenodd" clip-rule="evenodd" d="M85.7295 40.9918H114.316L109.375 36.0607L107.381 38.0509C106.795 38.6361 105.845 38.6352 105.26 38.0488C104.674 37.4624 104.675 36.5127 105.262 35.9275L107.252 33.9415L103.241 29.9385L101.245 31.9298C100.659 32.515 99.709 32.5141 99.1238 31.9277C98.5386 31.3413 98.5396 30.3916 99.126 29.8064L101.117 27.8193L97.103 23.8133L95.1074 25.8048C94.5211 26.39 93.5713 26.3891 92.9861 25.8027C92.4009 25.2163 92.4019 24.2666 92.9883 23.6814L94.9796 21.6941L91.2229 17.9449L88.9717 20.1915C88.3853 20.7767 87.4356 20.7758 86.8504 20.1894C86.2652 19.603 86.2661 18.6533 86.8525 18.0681L89.0994 15.8257L85.7295 12.4625V40.9918ZM79.7295 6.47454V16.3845H12C5.37258 16.3845 0 21.7571 0 28.3845V81.9308C0 88.5582 5.37258 93.9308 12 93.9308H49V106.998H29C27.8954 106.998 27 107.893 27 108.998C27 110.102 27.8954 110.998 29 110.998H74C75.1046 110.998 76 110.102 76 108.998C76 107.893 75.1046 106.998 74 106.998H53V93.9308H89.937C96.5644 93.9308 101.937 88.5582 101.937 81.9308V46.9918H120.328H120.514H121.991H123.987C125.769 46.9918 126.661 44.8355 125.399 43.5762L123.987 42.1662L122.941 41.1231L122.81 40.9918L85.7295 3.98574L85.6002 3.85667L84.5608 2.81935L83.1423 1.40371C81.8818 0.145731 79.7295 1.0385 79.7295 2.81935V4.82336V6.29183V6.47454ZM12 20.3845H79.7295V44.9918C79.7295 46.0964 80.6249 46.9918 81.7295 46.9918H97.937V81.9308C97.937 86.3491 94.3553 89.9308 89.937 89.9308H12C7.58172 89.9308 4 86.3491 4 81.9308V28.3845C4 23.9662 7.58172 20.3845 12 20.3845Z" fill="white"/>
</svg>
